<mxfile host="Electron" agent="Mozilla/5.0 (X11; Linux x86_64) AppleWebKit/537.36 (KHTML, like Gecko) draw.io/26.2.2 Chrome/134.0.6998.178 Electron/35.1.2 Safari/537.36" version="26.2.2">
  <diagram name="Página-1" id="nKFhnz4HuFtWVB0UdHDt">
    <mxGraphModel dx="1362" dy="843" grid="1" gridSize="10" guides="1" tooltips="1" connect="1" arrows="1" fold="1" page="1" pageScale="1" pageWidth="827" pageHeight="1169" math="0" shadow="0">
      <root>
        <mxCell id="0" />
        <mxCell id="1" parent="0" />
        <mxCell id="GFYQbj-yxuXNB7DoVEHN-1" value="INICIO" style="ellipse;whiteSpace=wrap;html=1;" vertex="1" parent="1">
          <mxGeometry x="360" y="50" width="120" height="80" as="geometry" />
        </mxCell>
        <mxCell id="GFYQbj-yxuXNB7DoVEHN-2" value="" style="endArrow=classic;html=1;rounded=0;exitX=0.5;exitY=1;exitDx=0;exitDy=0;entryX=0.5;entryY=0;entryDx=0;entryDy=0;" edge="1" parent="1" source="GFYQbj-yxuXNB7DoVEHN-1" target="GFYQbj-yxuXNB7DoVEHN-3">
          <mxGeometry width="50" height="50" relative="1" as="geometry">
            <mxPoint x="390" y="270" as="sourcePoint" />
            <mxPoint x="420" y="220" as="targetPoint" />
          </mxGeometry>
        </mxCell>
        <mxCell id="GFYQbj-yxuXNB7DoVEHN-3" value="ESCRIBE LA CONTRASEÑA" style="shape=parallelogram;perimeter=parallelogramPerimeter;whiteSpace=wrap;html=1;fixedSize=1;" vertex="1" parent="1">
          <mxGeometry x="360" y="201" width="120" height="60" as="geometry" />
        </mxCell>
        <mxCell id="GFYQbj-yxuXNB7DoVEHN-4" value="" style="endArrow=classic;html=1;rounded=0;exitX=0.5;exitY=1;exitDx=0;exitDy=0;entryX=0.5;entryY=0;entryDx=0;entryDy=0;" edge="1" parent="1" source="GFYQbj-yxuXNB7DoVEHN-3" target="GFYQbj-yxuXNB7DoVEHN-5">
          <mxGeometry width="50" height="50" relative="1" as="geometry">
            <mxPoint x="390" y="410" as="sourcePoint" />
            <mxPoint x="420" y="320" as="targetPoint" />
          </mxGeometry>
        </mxCell>
        <mxCell id="GFYQbj-yxuXNB7DoVEHN-5" value="ES CORRECTA" style="rhombus;whiteSpace=wrap;html=1;" vertex="1" parent="1">
          <mxGeometry x="355" y="320" width="130" height="130" as="geometry" />
        </mxCell>
        <mxCell id="GFYQbj-yxuXNB7DoVEHN-6" value="" style="endArrow=classic;html=1;rounded=0;exitX=0;exitY=0.5;exitDx=0;exitDy=0;entryX=0.5;entryY=0;entryDx=0;entryDy=0;" edge="1" parent="1" source="GFYQbj-yxuXNB7DoVEHN-5" target="GFYQbj-yxuXNB7DoVEHN-10">
          <mxGeometry width="50" height="50" relative="1" as="geometry">
            <mxPoint x="120" y="320" as="sourcePoint" />
            <mxPoint x="160" y="280" as="targetPoint" />
            <Array as="points">
              <mxPoint x="195" y="385" />
            </Array>
          </mxGeometry>
        </mxCell>
        <mxCell id="GFYQbj-yxuXNB7DoVEHN-12" value="NO" style="edgeLabel;html=1;align=center;verticalAlign=middle;resizable=0;points=[];" vertex="1" connectable="0" parent="GFYQbj-yxuXNB7DoVEHN-6">
          <mxGeometry x="-0.3984" y="1" relative="1" as="geometry">
            <mxPoint as="offset" />
          </mxGeometry>
        </mxCell>
        <mxCell id="GFYQbj-yxuXNB7DoVEHN-7" value="" style="endArrow=classic;html=1;rounded=0;exitX=1;exitY=0.5;exitDx=0;exitDy=0;entryX=0.5;entryY=0;entryDx=0;entryDy=0;" edge="1" parent="1" source="GFYQbj-yxuXNB7DoVEHN-5" target="GFYQbj-yxuXNB7DoVEHN-9">
          <mxGeometry width="50" height="50" relative="1" as="geometry">
            <mxPoint x="620" y="400" as="sourcePoint" />
            <mxPoint x="670" y="350" as="targetPoint" />
            <Array as="points">
              <mxPoint x="646" y="385" />
            </Array>
          </mxGeometry>
        </mxCell>
        <mxCell id="GFYQbj-yxuXNB7DoVEHN-11" value="SI" style="edgeLabel;html=1;align=center;verticalAlign=middle;resizable=0;points=[];" vertex="1" connectable="0" parent="GFYQbj-yxuXNB7DoVEHN-7">
          <mxGeometry x="-0.4008" relative="1" as="geometry">
            <mxPoint as="offset" />
          </mxGeometry>
        </mxCell>
        <mxCell id="GFYQbj-yxuXNB7DoVEHN-8" value="FIN" style="ellipse;whiteSpace=wrap;html=1;" vertex="1" parent="1">
          <mxGeometry x="360" y="640" width="120" height="80" as="geometry" />
        </mxCell>
        <mxCell id="GFYQbj-yxuXNB7DoVEHN-9" value="ACCESO CONCEDIDO" style="whiteSpace=wrap;html=1;aspect=fixed;" vertex="1" parent="1">
          <mxGeometry x="601" y="481" width="90" height="90" as="geometry" />
        </mxCell>
        <mxCell id="GFYQbj-yxuXNB7DoVEHN-10" value="CONTRASEÑA INCORRECTA" style="whiteSpace=wrap;html=1;aspect=fixed;" vertex="1" parent="1">
          <mxGeometry x="150" y="481" width="90" height="90" as="geometry" />
        </mxCell>
        <mxCell id="GFYQbj-yxuXNB7DoVEHN-14" value="" style="endArrow=classic;html=1;rounded=0;exitX=0.5;exitY=1;exitDx=0;exitDy=0;entryX=1;entryY=0.5;entryDx=0;entryDy=0;" edge="1" parent="1" source="GFYQbj-yxuXNB7DoVEHN-9" target="GFYQbj-yxuXNB7DoVEHN-8">
          <mxGeometry width="50" height="50" relative="1" as="geometry">
            <mxPoint x="640" y="700" as="sourcePoint" />
            <mxPoint x="690" y="650" as="targetPoint" />
            <Array as="points">
              <mxPoint x="646" y="680" />
            </Array>
          </mxGeometry>
        </mxCell>
        <mxCell id="GFYQbj-yxuXNB7DoVEHN-15" value="" style="endArrow=classic;html=1;rounded=0;exitX=0;exitY=0.5;exitDx=0;exitDy=0;entryX=0;entryY=0.25;entryDx=0;entryDy=0;" edge="1" parent="1" source="GFYQbj-yxuXNB7DoVEHN-10" target="GFYQbj-yxuXNB7DoVEHN-3">
          <mxGeometry width="50" height="50" relative="1" as="geometry">
            <mxPoint x="90" y="510" as="sourcePoint" />
            <mxPoint x="280" y="220" as="targetPoint" />
            <Array as="points">
              <mxPoint x="80" y="526" />
              <mxPoint x="80" y="220" />
            </Array>
          </mxGeometry>
        </mxCell>
      </root>
    </mxGraphModel>
  </diagram>
</mxfile>
